if (_typeface_js && _typeface_js.loadFace) _typeface_js.loadFace({"glyphs":{"S":{"x_min":0,"x_max":945.96875,"ha":1071,"o":"m 215 1112 b 0 893 96 1112 0 1013 l 0 734 b 215 515 0 613 96 515 l 732 515 b 865 379 805 515 865 454 l 865 220 b 732 83 865 144 805 83 l 40 83 b 0 43 17 83 0 65 b 40 1 0 19 17 1 l 732 1 b 945 220 849 1 945 100 l 945 379 b 732 598 945 500 849 598 l 215 598 b 80 734 140 598 80 659 l 80 893 b 215 1029 80 969 140 1029 l 905 1029 b 945 1070 928 1029 945 1048 b 905 1112 945 1094 928 1112 l 215 1112 "},"/":{"x_min":0.28125,"x_max":718.390625,"ha":744,"o":"m 643 1091 b 699 1104 654 1111 680 1116 b 711 1047 718 1093 724 1066 l 74 19 b 19 6 62 0 38 -5 b 6 63 0 18 -5 44 l 643 1091 "},"K":{"x_min":0,"x_max":907.859375,"ha":1042,"o":"m 907 738 l 907 1070 b 865 1112 907 1093 886 1112 b 824 1070 843 1112 824 1093 l 824 738 b 694 606 824 662 769 606 l 81 606 l 81 1070 b 42 1112 81 1093 62 1112 b 0 1070 16 1112 0 1093 l 0 43 b 42 0 0 16 16 0 b 81 43 62 0 81 16 l 81 522 l 694 522 b 824 391 769 522 824 468 l 824 43 b 865 0 824 16 843 0 b 907 43 886 0 907 16 l 907 391 b 816 563 907 461 869 522 b 907 738 869 602 907 668 "},"7":{"x_min":-110.25,"x_max":688.21875,"ha":782,"o":"m -68 1115 l 646 1115 b 683 1093 661 1115 675 1106 b 681 1050 690 1080 690 1063 l 81 20 b 23 5 69 0 43 -6 b 2 43 10 13 2 27 b 9 65 2 50 5 58 b 571 1029 302 565 571 1029 b -68 1029 571 1029 334 1029 b -110 1072 -91 1029 -110 1048 b -68 1115 -110 1095 -91 1115 "},"d":{"x_min":0.46875,"x_max":825.078125,"ha":967,"o":"m 745 1070 b 745 723 745 867 745 723 b 215 723 745 723 804 723 b 0 503 97 723 0 624 l 0 220 b 215 1 0 99 97 1 l 610 1 b 825 220 728 1 825 99 l 825 1070 b 784 1112 825 1094 807 1112 b 745 1070 762 1112 745 1094 m 82 503 b 215 640 82 578 142 640 b 745 640 804 640 745 640 b 745 220 745 640 745 405 b 610 84 745 145 685 84 l 215 84 b 82 220 142 84 82 145 l 82 503 "},",":{"x_min":-57.171875,"x_max":83.03125,"ha":318,"o":"m -17 83 b -57 41 -39 83 -57 63 b -17 0 -57 18 -39 0 l 1 0 l 1 -77 b 42 -119 1 -101 19 -119 b 83 -77 63 -119 83 -101 l 83 43 b 42 83 83 65 63 83 l -17 83 "},"Y":{"x_min":0,"x_max":992.25,"ha":1117,"o":"m 951 1112 b 910 1070 929 1112 910 1094 l 910 747 b 777 611 910 672 850 611 l 215 611 b 81 747 141 611 81 672 l 81 1070 b 40 1112 81 1094 62 1112 b 0 1070 17 1112 0 1094 l 0 747 b 215 527 0 626 96 527 l 476 527 l 476 43 b 517 1 476 19 494 1 b 556 43 539 1 556 19 l 556 527 l 777 527 b 992 747 895 527 992 626 l 992 1070 b 951 1112 992 1094 974 1112 "},"E":{"x_min":10.890625,"x_max":924.203125,"ha":1056,"o":"m 883 84 b 924 43 905 84 924 65 b 883 1 924 19 905 1 l 225 1 b 10 220 107 1 10 100 l 10 893 b 225 1112 10 1013 107 1112 l 883 1112 b 922 1070 905 1112 922 1094 b 883 1029 922 1048 905 1029 l 225 1029 b 92 893 152 1029 92 968 l 92 609 l 865 609 b 906 568 888 609 906 590 b 865 526 906 545 888 526 l 92 526 l 92 220 b 225 84 92 145 152 84 l 883 84 "},"y":{"x_min":0,"x_max":835.71875,"ha":969,"o":"m 835 681 b 794 723 835 705 816 723 b 754 681 771 723 754 705 l 754 219 b 620 83 754 144 694 83 l 215 83 b 81 219 141 83 81 144 l 81 681 b 40 723 81 705 62 723 b 0 681 17 723 0 705 l 0 219 b 215 0 0 98 96 0 l 620 0 b 754 48 671 0 717 17 l 754 -166 b 620 -304 754 -243 694 -304 l 106 -304 b 65 -346 83 -304 65 -322 b 106 -386 65 -368 83 -386 l 620 -386 b 835 -166 739 -386 835 -289 l 835 681 "},"\"":{"x_min":0,"x_max":245,"ha":129,"o":"m 40 1108 b 0 1068 17 1108 0 1090 l 0 850 b 40 808 0 826 17 808 b 81 850 62 808 81 826 l 81 1068 b 40 1108 81 1090 62 1108 m 204 1108 b 163 1068 181 1108 163 1090 l 163 850 b 204 808 163 826 181 808 b 245 850 225 808 245 826 l 245 1068 b 204 1108 245 1090 225 1108 "},"‹":{"x_min":25.859375,"x_max":363.421875,"ha":406,"o":"m 181 411 l 363 633 l 208 633 l 25 411 l 208 187 l 363 187 l 181 411 "},"„":{"x_min":-57.171875,"x_max":281.75,"ha":318,"o":"m -17 83 b -57 41 -39 83 -57 63 b -17 0 -57 18 -39 0 l 1 0 l 1 -77 b 42 -119 1 -101 19 -119 b 83 -77 63 -119 83 -101 l 83 43 b 42 83 83 65 63 83 l -17 83 m 181 84 b 141 43 159 84 141 65 b 181 1 141 19 159 1 l 200 1 l 200 -76 b 240 -118 200 -100 217 -118 b 281 -76 262 -118 281 -100 l 281 44 b 240 84 281 66 262 84 l 181 84 "},"g":{"x_min":-1.359375,"x_max":853.421875,"ha":1013,"o":"m 213 87 b 80 225 140 87 80 148 l 80 502 b 213 640 80 579 140 640 l 638 640 b 771 502 711 640 773 579 l 771 87 l 213 87 m 638 -388 b 853 -169 756 -388 853 -290 l 853 502 b 638 723 853 625 756 723 l 213 723 b -1 502 95 723 -1 625 l -1 225 b 213 5 -1 102 95 5 l 771 5 l 771 -169 b 638 -306 773 -244 711 -306 l 99 -306 b 58 -348 76 -306 58 -325 b 99 -388 58 -370 76 -388 l 638 -388 "},"–":{"x_min":140.1875,"x_max":507.6875,"ha":665,"o":"m 466 420 b 507 461 490 420 507 438 b 466 502 507 484 490 502 l 181 502 b 140 461 157 502 140 484 b 181 420 140 438 157 420 l 466 420 "},"ƒ":{"x_min":0,"x_max":0,"ha":665},"e":{"x_min":-0.3125,"x_max":848.3125,"ha":969,"o":"m 213 723 b 0 505 95 723 0 626 l 0 219 b 213 1 0 98 95 1 l 781 1 b 822 42 803 1 822 19 b 781 83 822 65 803 83 l 213 83 b 80 219 139 83 80 144 b 80 304 80 267 80 304 b 807 304 80 304 175 304 b 848 345 830 304 848 322 l 848 505 b 634 723 848 626 751 723 l 213 723 m 80 505 b 213 641 80 580 139 641 l 634 641 b 768 505 708 641 768 580 b 768 386 768 434 768 386 b 80 386 698 386 144 386 b 80 505 80 386 80 445 "},"J":{"x_min":0,"x_max":935.078125,"ha":1079,"o":"m 935 1070 b 894 1112 935 1094 916 1112 b 853 1070 871 1112 853 1094 l 853 220 b 720 84 853 145 793 84 l 40 84 b 0 43 17 84 0 65 b 40 1 0 19 17 1 l 720 1 b 935 220 838 1 935 100 l 935 1070 "},"|":{"x_min":0,"x_max":81.671875,"ha":164,"o":"m 0 -220 b 40 -262 0 -244 17 -262 b 81 -220 62 -262 81 -244 l 81 1070 b 40 1112 81 1094 62 1112 b 0 1070 17 1112 0 1094 l 0 -220 "},"^":{"x_min":5.984375,"x_max":442.390625,"ha":554,"o":"m 434 868 b 427 813 447 851 443 826 b 375 820 411 801 387 805 l 221 1033 l 73 820 b 20 813 59 805 36 801 b 13 868 4 826 1 851 l 191 1118 b 221 1133 200 1127 210 1133 b 251 1118 234 1133 245 1127 l 434 868 "},"q":{"x_min":1.25,"x_max":853.1875,"ha":983,"o":"m 773 -345 b 812 -387 773 -369 790 -387 b 853 -345 835 -387 853 -369 l 853 504 b 638 723 853 624 756 723 l 216 723 b 1 504 97 723 1 624 l 1 222 b 216 2 1 101 97 2 b 773 2 805 2 773 2 b 773 -345 773 2 773 -143 m 82 504 b 216 640 82 579 142 640 l 638 640 b 773 504 713 640 773 579 b 773 86 773 319 773 86 b 216 86 773 86 805 86 b 82 222 142 86 82 147 l 82 504 "},"b":{"x_min":1.1875,"x_max":853.390625,"ha":985,"o":"m 83 1070 b 42 1112 83 1094 63 1112 b 1 1070 18 1112 1 1094 l 1 220 b 216 1 1 100 97 1 l 638 1 b 853 220 756 1 853 100 l 853 502 b 638 722 853 623 756 722 b 83 722 48 722 83 722 b 83 1070 83 722 83 868 m 773 220 b 638 84 773 145 713 84 l 216 84 b 83 220 142 84 83 145 b 83 639 83 405 83 639 b 638 639 83 639 48 639 b 773 502 713 639 773 577 l 773 220 "},"D":{"x_min":0.328125,"x_max":1003.46875,"ha":1128,"o":"m 41 1112 l 788 1112 b 1003 892 906 1112 1003 1013 l 1003 220 b 788 0 1003 99 906 0 l 41 0 b 0 42 18 0 0 18 l 0 1070 b 12 1099 0 1081 4 1092 b 41 1112 19 1108 30 1112 m 788 1029 b 82 1029 220 1029 82 1029 b 82 84 82 956 82 156 b 788 84 82 84 220 84 b 921 220 861 84 921 145 l 921 892 b 788 1029 921 967 861 1029 "},"z":{"x_min":0,"x_max":838.453125,"ha":954,"o":"m 797 723 l 42 723 b 0 680 19 723 0 702 b 42 636 0 655 19 636 b 686 636 42 636 521 636 b 16 72 549 522 16 72 b 0 37 5 68 0 52 b 42 0 0 16 21 -4 l 797 0 b 838 43 818 0 838 19 b 797 81 838 63 818 81 b 155 77 797 81 317 77 b 822 644 288 191 822 644 b 797 723 845 663 833 726 "},"w":{"x_min":1.359375,"x_max":1239.96875,"ha":1381,"o":"m 453 1 b 627 93 524 1 588 37 b 801 1 665 37 729 1 l 1024 1 b 1239 221 1143 1 1239 100 l 1239 682 b 1199 724 1239 705 1220 724 b 1158 682 1176 724 1158 705 l 1158 221 b 1024 85 1158 144 1098 85 l 801 85 b 668 221 728 85 668 144 l 668 682 b 627 724 668 705 649 724 b 627 724 627 724 627 724 b 627 724 627 724 627 724 b 586 682 604 724 586 705 l 586 221 b 453 85 586 144 526 85 l 216 85 b 83 221 142 85 83 144 l 83 682 b 42 724 83 705 63 724 b 1 682 19 724 1 705 l 1 221 b 216 1 1 100 98 1 l 453 1 "},"$":{"x_min":2.71875,"x_max":948.703125,"ha":1050,"o":"m 217 1112 l 451 1112 l 451 1220 b 492 1262 451 1244 469 1262 b 533 1220 514 1262 533 1244 l 533 1112 l 907 1112 b 948 1070 931 1112 948 1094 b 907 1029 948 1048 931 1029 l 217 1029 b 83 893 142 1029 83 969 l 83 734 b 217 598 83 659 142 598 l 735 598 b 948 379 852 598 948 500 l 948 220 b 735 1 948 100 852 1 l 533 1 l 533 -98 b 492 -140 533 -122 514 -140 b 451 -98 469 -140 451 -122 l 451 1 l 43 1 b 2 43 20 1 2 19 b 43 83 2 65 20 83 l 735 83 b 868 220 808 83 868 144 l 868 379 b 735 515 868 454 808 515 l 217 515 b 2 734 99 515 2 613 l 2 893 b 217 1112 2 1013 99 1112 "},"™":{"x_min":-1.359375,"x_max":484.5625,"ha":1071,"o":"m 123 889 l 123 1111 l 206 1111 l 206 1149 l -1 1149 l -1 1111 l 81 1111 l 81 889 l 123 889 m 273 889 l 273 1111 l 341 889 l 379 889 l 446 1107 l 446 889 l 484 889 l 484 1149 l 423 1149 l 362 941 l 298 1149 l 234 1149 l 234 889 l 273 889 "},"\\":{"x_min":-2.625,"x_max":523.921875,"ha":644,"o":"m 70 1091 b 14 1104 62 1112 34 1116 b 2 1047 -4 1091 -6 1068 l 450 19 b 506 6 460 -1 487 -5 b 518 63 525 18 528 43 l 70 1091 "},"’":{"x_min":12.296875,"x_max":177.140625,"ha":232,"o":"m 161 1104 b 102 1098 144 1119 117 1118 l 23 1002 b 27 941 6 984 9 956 b 87 945 44 926 72 927 l 167 1041 b 161 1104 182 1061 179 1087 "},"~":{"x_min":134.484375,"x_max":744.796875,"ha":1013,"o":"m 157 251 b 140 188 136 238 127 211 b 201 170 151 166 179 158 b 406 187 270 208 345 215 b 721 202 507 144 627 150 b 739 265 743 215 751 243 b 677 283 726 287 699 295 b 443 273 608 244 517 240 b 157 251 356 312 251 304 "},"-":{"x_min":4.078125,"x_max":371.578125,"ha":476,"o":"m 330 358 b 371 398 353 358 371 376 b 330 440 371 422 353 440 l 44 440 b 4 398 21 440 4 422 b 44 358 4 376 21 358 l 330 358 "},"Q":{"x_min":-1.359375,"x_max":1112.03125,"ha":1243,"o":"m 212 1112 b -1 894 93 1112 -1 1015 l -1 218 b 212 0 -1 97 93 0 l 515 0 l 515 -31 b 729 -250 515 -152 611 -250 b 769 -208 751 -250 769 -231 b 729 -168 769 -186 751 -168 b 596 -31 656 -168 596 -106 l 596 0 l 898 0 b 1112 218 1016 0 1112 97 l 1112 894 b 898 1112 1112 1015 1016 1112 l 212 1112 m 1031 218 b 898 81 1031 143 971 81 l 596 81 l 596 304 b 556 345 596 327 578 345 b 515 304 533 345 515 327 l 515 81 l 212 81 b 78 218 138 81 78 143 l 78 894 b 212 1030 78 969 138 1030 l 898 1030 b 1031 894 971 1030 1031 969 l 1031 218 "},"M":{"x_min":-1.359375,"x_max":1795.3125,"ha":1933,"o":"m 1071 1112 b 896 1020 1000 1112 936 1076 b 722 1112 858 1076 794 1112 l 213 1112 b -1 892 95 1112 -1 1013 l -1 42 b 39 1 -1 19 17 1 b 80 42 62 1 80 19 l 80 892 b 213 1028 80 969 140 1028 l 722 1028 b 857 892 796 1028 857 969 l 857 42 b 896 1 857 19 875 1 b 896 1 896 1 896 1 b 896 1 896 1 896 1 b 937 42 920 1 937 19 l 937 892 b 1071 1028 937 969 997 1028 l 1580 1028 b 1715 892 1655 1028 1715 969 l 1715 42 b 1754 1 1715 19 1732 1 b 1795 42 1777 1 1795 19 l 1795 892 b 1580 1112 1795 1013 1698 1112 l 1071 1112 "},"C":{"x_min":0,"x_max":914.671875,"ha":1042,"o":"m 215 1112 l 873 1112 b 914 1070 896 1112 914 1094 b 873 1029 914 1048 896 1029 l 215 1029 b 81 893 141 1029 81 968 l 81 220 b 215 84 81 145 141 84 l 873 84 b 914 43 896 84 914 65 b 873 1 914 19 896 1 l 215 1 b 0 220 96 1 0 100 l 0 893 b 215 1112 0 1013 96 1112 "},"[":{"x_min":-79.9375,"x_max":114.6875,"ha":126,"o":"m 75 1186 l -40 1186 b -79 1145 -62 1186 -79 1168 l -79 -140 b -40 -180 -79 -162 -62 -180 l 75 -180 b 114 -140 97 -180 114 -162 b 75 -100 114 -118 97 -100 b -1 -100 50 -100 -1 -100 b -1 1105 -1 -36 -1 1041 b 75 1105 -1 1105 50 1105 b 114 1145 97 1105 114 1123 b 75 1186 114 1168 97 1186 "},"L":{"x_min":0,"x_max":935.078125,"ha":1001,"o":"m 0 220 b 215 1 0 100 96 1 l 894 1 b 935 43 916 1 935 19 b 894 84 935 65 916 84 l 215 84 b 81 220 141 84 81 145 l 81 1070 b 40 1112 81 1094 62 1112 b 0 1070 17 1112 0 1094 l 0 220 "},"!":{"x_min":0,"x_max":81.671875,"ha":140,"o":"m 0 1070 b 40 1112 0 1094 17 1112 b 81 1070 62 1112 81 1094 l 81 265 b 40 223 81 241 62 223 b 0 265 17 223 0 241 l 0 1070 m 0 98 b 40 140 0 122 17 140 b 81 98 62 140 81 122 l 81 43 b 40 1 81 19 62 1 b 0 43 17 1 0 19 l 0 98 "},"":{"x_min":0,"x_max":0,"ha":694}," ":{"x_min":0,"x_max":0,"ha":474},"{":{"x_min":-92.5625,"x_max":366.140625,"ha":492,"o":"m 326 -40 l 215 -40 b 81 95 140 -40 81 19 l 81 973 b 215 1109 81 1048 140 1109 l 326 1109 b 366 1150 347 1109 366 1127 b 326 1191 366 1176 347 1191 l 215 1191 b 0 973 96 1191 0 1093 l 0 612 l -49 612 b -92 572 -73 612 -92 597 b -49 530 -92 550 -73 530 l 0 530 l 0 525 l 0 95 b 215 -122 0 -25 96 -122 l 326 -122 b 366 -81 347 -122 366 -104 b 326 -40 366 -59 347 -40 "},"X":{"x_min":0,"x_max":1016.75,"ha":1132,"o":"m 928 568 b 1016 745 981 608 1016 672 l 1016 1070 b 977 1112 1016 1094 999 1112 b 936 1070 954 1112 936 1094 l 936 745 b 801 609 936 670 876 609 l 215 609 l 215 609 b 81 745 141 609 81 670 l 81 1070 b 40 1112 81 1094 62 1112 b 0 1070 17 1112 0 1094 l 0 745 b 89 568 0 672 35 608 b 0 390 35 527 0 463 l 0 43 b 40 1 0 19 17 1 b 81 43 62 1 81 19 l 81 390 b 215 526 81 465 141 526 l 801 526 l 801 526 b 936 390 876 526 936 465 l 936 43 b 977 1 936 19 954 1 b 1016 43 999 1 1016 19 l 1016 390 b 928 568 1016 463 981 527 "},"P":{"x_min":0,"x_max":1022.0625,"ha":1098,"o":"m 0 42 l 0 893 q 64 1048 0 983 q 219 1112 128 1112 l 803 1112 q 957 1048 893 1112 q 1022 893 1022 983 l 1022 514 q 957 359 1022 423 q 803 294 893 294 l 83 294 l 83 42 q 70 12 83 24 q 41 1 58 1 q 11 12 23 1 q 0 42 0 24 m 83 378 l 803 378 q 899 417 859 378 q 940 514 940 457 l 940 893 q 899 989 940 949 q 803 1029 859 1029 l 219 1029 q 123 989 163 1029 q 83 893 83 949 l 83 378 "},"%":{"x_min":8.171875,"x_max":1114.75,"ha":744,"o":"m 856 1091 b 911 1104 867 1111 892 1116 b 924 1047 931 1093 936 1066 l 287 19 b 231 6 274 0 250 -5 b 219 63 212 18 206 44 l 856 1091 m 808 529 l 899 529 b 1114 309 1018 529 1114 430 l 1114 220 b 899 1 1114 100 1018 1 l 808 1 b 593 220 690 1 593 100 l 593 309 b 808 529 593 430 690 529 m 675 220 b 808 84 675 145 735 84 l 899 84 b 1033 220 973 84 1033 145 l 1033 309 b 899 445 1033 384 973 445 l 808 445 b 675 309 735 445 675 384 l 675 220 m 223 1112 l 314 1112 b 529 893 432 1112 529 1013 l 529 804 b 314 584 529 683 432 584 l 223 584 b 8 804 104 584 8 683 l 8 893 b 223 1112 8 1013 104 1112 m 89 804 b 223 668 89 729 149 668 l 314 668 b 447 804 387 668 447 729 l 447 893 b 314 1029 447 968 387 1029 l 223 1029 b 89 893 149 1029 89 968 l 89 804 "},"#":{"x_min":-140.1875,"x_max":525.390625,"ha":600,"o":"m 484 223 b 525 181 506 223 525 204 b 484 140 525 158 506 140 l 387 140 l 387 41 b 347 0 387 18 368 0 b 306 41 323 0 306 18 l 306 140 l 78 140 l 78 41 b 38 0 78 18 59 0 b -2 41 14 0 -2 18 l -2 140 l -99 140 b -140 181 -122 140 -140 158 b -99 223 -140 204 -122 223 l -2 223 l -2 455 l -99 455 b -140 497 -122 455 -140 473 b -99 538 -140 519 -122 538 l -2 538 l -2 637 b 38 679 -2 659 14 679 b 78 637 59 679 78 659 l 78 538 l 306 538 l 306 637 b 347 679 306 659 323 679 b 387 637 368 679 387 659 l 387 538 l 484 538 b 525 497 506 538 525 519 b 484 455 525 473 506 455 l 387 455 l 387 223 l 484 223 m 78 223 l 306 223 l 306 455 l 78 455 l 78 223 "},"_":{"x_min":4.078125,"x_max":575.75,"ha":628,"o":"m 536 1 b 575 41 558 1 575 19 b 536 83 575 65 558 83 l 44 83 b 4 41 23 83 4 65 b 44 1 4 19 23 1 l 536 1 "},"+":{"x_min":1.359375,"x_max":585.28125,"ha":694,"o":"m 545 401 b 585 362 567 401 585 384 b 545 322 585 340 567 322 l 332 322 l 332 104 b 292 65 332 81 314 65 b 254 104 272 65 254 81 l 254 322 l 40 322 b 1 362 19 322 1 340 b 40 401 1 384 19 401 l 254 401 l 254 620 b 292 659 254 641 272 659 b 332 620 314 659 332 641 l 332 401 l 545 401 "},"‚":{"x_min":-57.171875,"x_max":83.03125,"ha":318,"o":"m -17 83 b -57 41 -39 83 -57 63 b -17 0 -57 18 -39 0 l 1 0 l 1 -77 b 42 -119 1 -101 19 -119 b 83 -77 63 -119 83 -101 l 83 43 b 42 83 83 65 63 83 l -17 83 "},")":{"x_min":8.21875,"x_max":202.84375,"ha":261,"o":"m 47 1186 l 163 1186 b 202 1145 185 1186 202 1168 l 202 -140 b 163 -180 202 -162 185 -180 l 47 -180 b 8 -140 25 -180 8 -162 b 47 -100 8 -118 25 -100 b 123 -100 72 -100 123 -100 b 123 1105 123 -36 123 1041 b 47 1105 123 1105 72 1105 b 8 1145 25 1105 8 1123 b 47 1186 8 1168 25 1186 "},"'":{"x_min":0,"x_max":81.671875,"ha":129,"o":"m 40 1108 b 0 1068 17 1108 0 1090 l 0 850 b 40 808 0 826 17 808 b 81 850 62 808 81 826 l 81 1068 b 40 1108 81 1090 62 1108 "},"}":{"x_min":2.71875,"x_max":461.421875,"ha":492,"o":"m 42 -40 b 2 -81 21 -40 2 -59 b 42 -122 2 -104 21 -122 l 153 -122 b 368 95 272 -122 368 -25 l 368 525 l 368 530 l 417 530 b 461 572 442 530 461 550 b 417 612 461 597 442 612 l 368 612 l 368 973 b 153 1191 368 1093 272 1191 l 42 1191 b 2 1150 21 1191 2 1176 b 42 1109 2 1127 21 1109 l 153 1109 b 287 973 228 1109 287 1048 l 287 95 b 153 -40 287 19 228 -40 l 42 -40 "},"‰":{"x_min":8.171875,"x_max":1700.03125,"ha":1821,"o":"m 219 63 b 231 6 206 44 212 18 b 287 19 250 -5 274 0 l 924 1047 b 911 1104 936 1066 931 1093 b 856 1091 892 1116 867 1111 l 219 63 m 808 529 b 593 309 690 529 593 430 l 593 220 b 808 1 593 100 690 1 l 899 1 b 1114 220 1018 1 1114 100 l 1114 309 b 899 529 1114 430 1018 529 l 808 529 m 675 309 b 808 445 675 384 735 445 l 899 445 b 1033 309 973 445 1033 384 l 1033 220 b 899 84 1033 145 973 84 l 808 84 b 675 220 735 84 675 145 l 675 309 m 223 1112 b 8 893 104 1112 8 1013 l 8 804 b 223 584 8 683 104 584 l 314 584 b 529 804 432 584 529 683 l 529 893 b 314 1112 529 1013 432 1112 l 223 1112 m 89 893 b 223 1029 89 968 149 1029 l 314 1029 b 447 893 387 1029 447 968 l 447 804 b 314 668 447 729 387 668 l 223 668 b 89 804 149 668 89 729 l 89 893 m 1393 529 b 1178 309 1275 529 1178 430 l 1178 220 b 1393 1 1178 100 1275 1 l 1484 1 b 1700 220 1603 1 1700 100 l 1700 309 b 1484 529 1700 430 1603 529 l 1393 529 m 1260 309 b 1393 445 1260 384 1320 445 l 1484 445 b 1618 309 1558 445 1618 384 l 1618 220 b 1484 84 1618 145 1558 84 l 1393 84 b 1260 220 1320 84 1260 145 l 1260 309 "},"a":{"x_min":0.046875,"x_max":843.9375,"ha":983,"o":"m 47 723 b 6 682 24 723 6 705 b 47 642 6 660 24 642 l 632 642 b 765 507 705 642 765 582 b 765 431 765 466 765 431 b 212 431 765 431 705 431 b 0 216 95 431 0 335 b 211 1 0 98 93 1 l 634 1 b 843 216 750 1 843 96 l 843 507 b 632 723 843 627 750 723 l 47 723 m 80 216 b 212 351 80 289 138 351 b 765 351 705 351 765 351 b 765 216 765 351 765 282 b 634 82 765 142 706 82 l 211 82 b 80 216 138 82 80 142 "},"T":{"x_min":0,"x_max":1027.640625,"ha":1103,"o":"m 40 1112 b 0 1070 17 1112 0 1094 b 40 1029 0 1048 17 1029 l 473 1029 l 473 43 b 514 1 473 19 491 1 b 553 43 536 1 553 19 l 553 1029 l 986 1029 b 1027 1070 1009 1029 1027 1048 b 986 1112 1027 1094 1009 1112 l 40 1112 "},"—":{"x_min":167.421875,"x_max":671.03125,"ha":839,"o":"m 630 559 b 671 600 653 559 671 577 b 630 641 671 623 653 641 l 208 641 b 167 600 185 641 167 623 b 208 559 167 577 185 559 l 630 559 "},"=":{"x_min":6.8125,"x_max":653.328125,"ha":749,"o":"m 47 418 b 6 459 24 418 6 436 b 47 501 6 481 24 501 l 612 501 b 653 459 634 501 653 481 b 612 418 653 436 634 418 l 47 418 m 47 168 b 6 209 24 168 6 186 b 47 251 6 231 24 251 l 612 251 b 653 209 634 251 653 231 b 612 168 653 186 634 168 l 47 168 "},"N":{"x_min":0,"x_max":1031.71875,"ha":1172,"o":"m 950 43 b 990 1 950 19 969 1 b 1031 43 1014 1 1031 19 l 1031 893 b 816 1112 1031 1013 935 1112 l 215 1112 b 0 893 96 1112 0 1013 l 0 43 b 40 1 0 19 17 1 b 80 43 62 1 80 19 l 80 893 b 215 1030 80 969 140 1030 l 816 1030 b 950 893 890 1030 950 969 l 950 43 "},"⁄":{"x_min":0.28125,"x_max":718.390625,"ha":744,"o":"m 643 1091 b 699 1104 654 1111 680 1116 b 711 1047 718 1093 724 1066 l 74 19 b 19 6 62 0 38 -5 b 6 63 0 18 -5 44 l 643 1091 "},"2":{"x_min":-2.671875,"x_max":886.140625,"ha":1019,"o":"m 206 1113 l 646 1113 b 857 900 762 1113 857 1018 l 857 693 b 647 479 857 575 763 479 l 208 479 b 79 345 137 479 79 419 b 79 80 79 168 79 80 b 846 80 79 80 149 80 b 886 40 868 80 886 62 b 846 0 886 18 868 0 l 39 0 b -1 40 17 0 -1 18 l -1 345 b 208 559 -1 463 92 559 l 647 559 b 777 693 720 559 777 620 l 777 900 b 646 1031 777 973 718 1031 l 206 1031 b 76 898 134 1031 76 972 l 76 819 b 36 777 76 795 58 777 b -2 819 15 777 -2 795 l -2 898 b 206 1113 -2 1018 91 1113 "},"j":{"x_min":-228.671875,"x_max":164.6875,"ha":301,"o":"m 161 681 b 121 723 161 705 142 723 b 80 681 98 723 80 705 l 80 -168 b -53 -304 80 -243 20 -304 l -187 -304 b -228 -345 -210 -304 -228 -323 b -187 -387 -228 -369 -210 -387 l -53 -387 b 161 -168 65 -387 161 -288 l 161 681 m 83 812 b 123 770 83 790 102 770 b 164 812 147 770 164 790 l 164 861 b 123 902 164 884 147 902 b 83 861 102 902 83 884 l 83 812 "},"Z":{"x_min":0,"x_max":974.5625,"ha":1061,"o":"m 40 1111 b 0 1069 19 1111 0 1091 b 40 1027 0 1045 19 1027 b 816 1027 660 1027 816 1027 b 9 68 816 1027 715 909 b 0 41 2 61 0 51 b 4 23 0 36 1 29 b 40 0 10 9 24 0 l 933 0 b 974 41 956 0 974 18 b 933 83 974 63 956 83 b 129 83 219 83 129 83 b 935 1043 129 83 228 201 b 944 1069 941 1050 944 1059 b 940 1087 944 1075 943 1081 b 903 1111 935 1101 920 1111 l 40 1111 "},"u":{"x_min":-0.109375,"x_max":811.109375,"ha":949,"o":"m 770 0 b 811 42 793 0 811 20 l 811 679 b 770 721 811 702 793 721 b 730 679 748 721 730 702 b 730 84 729 404 730 84 b 214 84 730 84 781 84 b 81 220 141 84 81 145 l 81 681 b 40 722 81 703 62 722 b 0 681 17 722 0 703 l 0 220 b 214 0 0 99 96 0 l 770 0 "},"1":{"x_min":0,"x_max":390.640625,"ha":564,"o":"m 390 43 b 349 1 390 20 371 1 b 308 43 326 1 308 20 l 308 893 b 175 1030 308 969 249 1030 l 40 1030 b 0 1070 17 1030 0 1048 b 40 1112 0 1094 17 1112 l 175 1112 b 390 893 294 1112 390 1015 l 390 43 "},"›":{"x_min":2.3125,"x_max":322.578125,"ha":406,"o":"m 62 193 b 9 200 46 179 21 183 b 16 252 -2 216 1 240 l 224 409 l 16 561 b 9 615 1 575 -2 598 b 62 622 21 631 46 634 l 307 440 b 322 409 317 431 322 420 b 307 379 322 397 317 386 l 62 193 "},"k":{"x_min":0,"x_max":766.3125,"ha":906,"o":"m 766 681 b 725 723 766 705 747 723 b 684 681 703 723 684 705 l 684 572 b 549 434 684 495 623 434 l 81 434 l 81 1070 b 40 1112 81 1093 63 1112 b 0 1070 19 1112 0 1093 l 0 43 b 40 1 0 20 19 1 b 81 43 63 1 81 20 l 81 350 l 549 350 b 684 213 623 350 684 290 l 684 43 b 725 1 684 20 703 1 b 766 43 747 1 766 20 l 766 213 b 676 393 766 287 730 351 b 766 572 730 433 766 497 l 766 681 "},"€":{"x_min":-29.9375,"x_max":881.265625,"ha":1010,"o":"m 830 109 b 669 79 777 88 725 79 b 224 415 462 79 285 218 l 725 415 b 763 459 744 415 763 434 b 725 494 763 476 744 494 l 208 494 b 204 555 204 515 204 534 b 208 606 204 575 204 590 l 725 606 b 763 647 744 606 763 625 b 725 691 763 675 744 691 l 224 691 b 669 1023 285 881 462 1023 b 830 994 725 1023 777 1011 b 877 1018 850 988 872 997 b 858 1073 887 1038 875 1062 b 669 1109 796 1095 730 1109 b 142 691 416 1109 201 930 l 13 691 b -29 647 -10 691 -29 675 b 13 606 -29 625 -10 606 l 129 606 b 126 555 126 590 126 575 b 129 494 126 534 126 515 l 13 494 b -29 459 -10 494 -29 476 b 13 415 -29 434 -10 415 l 142 415 b 669 0 201 179 416 0 b 858 36 730 0 796 13 b 877 86 875 44 887 68 b 830 109 872 105 850 119 "},"<":{"x_min":0,"x_max":680.5625,"ha":694,"o":"m 680 182 l 680 94 l 0 442 l 0 540 l 680 886 l 680 797 l 89 491 l 680 182 "},"t":{"x_min":0,"x_max":400.171875,"ha":507,"o":"m 215 84 b 81 220 141 84 81 145 l 81 643 l 357 643 b 398 683 381 643 398 661 b 357 725 398 706 381 725 l 81 725 l 81 1070 b 40 1112 81 1094 62 1112 b 0 1070 17 1112 0 1094 l 0 220 b 215 1 0 100 96 1 l 359 1 b 400 43 382 1 400 19 b 359 84 400 65 382 84 l 215 84 "},"W":{"x_min":47,"x_max":1602.75,"ha":1731,"o":"m 47 218 l 47 1071 q 58 1100 47 1088 q 88 1112 70 1112 q 117 1100 105 1112 q 130 1071 130 1088 l 130 217 q 170 121 130 161 q 266 81 209 81 l 646 81 q 742 121 702 81 q 783 217 783 161 l 783 1071 q 795 1100 783 1088 q 825 1112 807 1112 q 854 1100 842 1112 q 866 1071 866 1088 l 866 217 q 906 121 866 161 q 1002 81 946 81 l 1383 81 q 1479 121 1439 81 q 1520 217 1520 161 l 1520 1071 q 1531 1100 1520 1088 q 1561 1112 1543 1112 q 1590 1100 1578 1112 q 1602 1071 1602 1088 l 1602 218 q 1538 63 1602 127 q 1383 0 1474 0 l 1002 0 q 901 23 948 0 q 825 89 854 48 q 747 23 794 48 q 646 0 699 0 l 266 0 q 111 63 175 0 q 47 218 47 127 "},"v":{"x_min":0.25,"x_max":858.609375,"ha":968,"o":"m 782 706 b 443 83 465 123 443 83 b 417 83 432 83 430 83 b 76 706 417 83 396 123 b 20 723 65 727 40 734 b 5 666 1 712 -5 687 l 359 20 b 394 0 366 8 379 0 l 468 0 b 503 20 483 0 496 8 l 853 666 b 838 723 864 687 857 712 b 782 706 818 734 793 727 "},">":{"x_min":0,"x_max":680.5625,"ha":694,"o":"m 680 442 l 0 94 l 0 182 l 590 491 l 0 797 l 0 886 l 680 540 l 680 442 "},"s":{"x_min":0,"x_max":854.78125,"ha":999,"o":"m 224 723 b 0 522 100 723 0 633 b 224 322 0 412 100 322 l 630 322 b 773 204 707 322 773 268 b 630 83 773 140 707 83 l 42 83 b 2 43 20 83 2 65 b 42 1 2 19 20 1 l 630 1 b 854 204 754 1 854 94 b 630 404 854 315 754 404 l 224 404 b 80 522 147 404 80 458 b 224 640 80 586 147 640 l 800 640 b 841 681 822 640 841 659 b 800 723 841 704 822 723 l 224 723 "},"B":{"x_min":0.328125,"x_max":961.28125,"ha":1094,"o":"m 691 1 l 215 1 b 0 231 94 1 0 102 l 0 1070 b 12 1099 0 1081 4 1092 b 41 1112 19 1107 30 1112 l 744 1112 b 959 892 863 1112 959 1013 l 959 745 b 871 569 959 673 924 607 b 961 389 925 528 961 463 l 961 220 b 691 1 961 46 810 1 m 746 526 l 82 526 b 82 231 82 526 82 387 b 215 84 82 146 139 84 l 746 84 b 880 220 819 84 880 145 l 880 389 b 746 526 880 464 819 526 m 744 1028 l 82 1028 b 82 609 82 988 82 821 l 744 609 b 878 745 818 609 878 670 l 878 892 b 744 1028 878 967 818 1028 "},"…":{"x_min":8.171875,"x_max":416.5,"ha":507,"o":"m 8 41 b 49 0 8 19 25 0 b 89 41 70 0 89 19 l 89 90 b 49 131 89 113 70 131 b 8 90 25 131 8 113 l 8 41 m 171 41 b 212 0 171 19 189 0 b 253 41 234 0 253 19 l 253 90 b 212 131 253 113 234 131 b 171 90 189 131 171 113 l 171 41 m 334 41 b 375 0 334 19 352 0 b 416 41 397 0 416 19 l 416 90 b 375 131 416 113 397 131 b 334 90 352 131 334 113 l 334 41 "},"?":{"x_min":-8.171875,"x_max":869.75,"ha":971,"o":"m 205 1108 l 656 1108 b 869 890 774 1108 869 1011 l 869 833 b 656 613 869 712 774 613 l 528 613 b 396 477 454 613 396 552 l 396 291 b 355 250 396 268 377 250 b 314 291 333 250 314 268 l 314 477 b 528 697 314 598 411 697 l 656 697 b 789 833 729 697 789 758 l 789 890 b 656 1026 789 965 729 1026 l 205 1026 b 73 890 132 1026 73 965 l 73 808 b 32 766 73 784 54 766 b -8 808 9 766 -8 784 l -8 890 b 205 1108 -8 1011 87 1108 m 314 145 b 355 187 314 169 332 187 b 396 145 377 187 396 169 l 396 41 b 355 0 396 19 377 0 b 314 41 332 0 314 19 l 314 145 "},"H":{"x_min":0,"x_max":933.71875,"ha":1085,"o":"m 894 1112 b 933 1070 916 1112 933 1094 l 933 43 b 894 1 933 19 916 1 b 853 43 871 1 853 19 l 853 526 l 81 526 l 81 43 b 40 1 81 19 62 1 b 0 43 17 1 0 19 l 0 1070 b 40 1112 0 1094 17 1112 b 81 1070 62 1112 81 1094 l 81 609 l 853 609 l 853 1070 b 894 1112 853 1094 871 1112 "},"c":{"x_min":0,"x_max":834.359375,"ha":940,"o":"m 216 723 b 0 502 96 723 0 625 l 0 222 b 216 1 0 100 96 1 l 790 1 b 831 43 813 1 831 19 b 790 84 831 66 813 84 l 216 84 b 81 222 141 84 81 145 l 81 502 b 216 640 81 579 142 640 l 793 640 b 834 681 815 640 834 659 b 793 723 834 705 815 723 l 216 723 "},"&":{"x_min":0.265625,"x_max":840.078125,"ha":958,"o":"m 256 572 l 695 117 b 738 211 721 140 738 174 l 738 300 b 778 343 738 324 755 343 b 821 300 801 343 821 324 l 821 211 b 754 55 821 150 795 94 b 827 -20 754 55 799 8 b 840 -50 836 -28 840 -39 b 827 -80 840 -62 836 -73 b 769 -80 811 -96 785 -96 l 680 11 b 611 0 659 3 635 0 l 208 0 b 0 211 94 0 0 94 l 0 300 b 196 512 0 414 87 507 b 181 535 184 529 181 535 b 178 792 178 540 113 676 b 378 897 224 871 317 897 l 659 897 b 701 856 682 897 701 879 b 659 812 701 832 682 812 b 382 812 388 812 382 812 b 262 747 324 806 283 783 b 242 662 247 722 242 692 b 256 572 242 624 252 587 m 208 83 l 611 83 l 277 429 l 208 429 b 83 300 139 429 83 371 l 83 211 b 208 83 83 140 139 83 "},"I":{"x_min":0,"x_max":81.671875,"ha":207,"o":"m 0 1070 b 40 1112 0 1094 17 1112 b 81 1070 62 1112 81 1094 l 81 43 b 40 1 81 19 62 1 b 0 43 17 1 0 19 l 0 1070 "},"•":{"x_min":63.96875,"x_max":389.28125,"ha":463,"o":"m 389 491 b 378 554 389 513 385 534 b 345 605 370 573 359 590 b 294 641 330 620 314 633 b 228 655 273 651 251 655 b 159 641 202 655 179 650 b 107 602 138 631 122 618 b 74 550 92 587 81 569 b 63 490 68 529 63 509 b 76 427 63 468 68 447 b 110 375 84 406 95 390 b 161 338 125 359 141 347 b 231 325 182 329 205 325 b 295 337 254 325 276 329 b 345 373 315 347 332 358 b 377 427 359 388 370 406 b 389 491 385 448 389 469 "},"G":{"x_min":-0.25,"x_max":1039.640625,"ha":1164,"o":"m 222 1112 l 997 1112 b 1039 1069 1020 1112 1039 1093 b 997 1026 1039 1045 1020 1026 l 222 1026 b 84 884 146 1026 84 962 l 84 229 b 222 87 84 151 146 87 l 804 87 b 943 229 881 87 943 151 b 943 525 943 418 943 525 b 285 525 943 525 748 525 b 243 568 262 525 243 544 b 285 608 243 591 262 608 l 985 608 b 1027 568 1008 608 1027 591 l 1027 229 b 804 1 1027 104 928 1 l 222 1 b 0 229 100 1 0 104 l 0 884 b 222 1112 0 1009 100 1112 "},"(":{"x_min":1.0625,"x_max":195.6875,"ha":249,"o":"m 156 1186 l 40 1186 b 1 1145 18 1186 1 1168 l 1 -140 b 40 -180 1 -162 18 -180 l 156 -180 b 195 -140 178 -180 195 -162 b 156 -100 195 -118 178 -100 b 80 -100 131 -100 80 -100 b 80 1105 80 -36 80 1041 b 156 1105 80 1105 131 1105 b 195 1145 178 1105 195 1123 b 156 1186 195 1168 178 1186 "},"`":{"x_min":197.96875,"x_max":362.828125,"ha":318,"o":"m 212 965 b 208 902 194 948 193 922 l 288 806 b 348 802 303 788 330 787 b 352 863 366 818 367 845 l 272 959 b 212 965 257 979 230 980 "},"U":{"x_min":0,"x_max":1033.078125,"ha":1183,"o":"m 951 220 b 818 83 951 144 891 83 l 215 83 b 80 220 140 83 80 144 l 80 1070 b 40 1112 80 1094 62 1112 b 0 1070 17 1112 0 1094 l 0 220 b 215 1 0 100 96 1 l 818 1 b 1033 220 936 1 1033 100 l 1033 1070 b 992 1112 1033 1094 1015 1112 b 951 1070 970 1112 951 1094 l 951 220 "},"F":{"x_min":0,"x_max":921.46875,"ha":1001,"o":"m 880 1112 b 921 1070 902 1112 921 1094 b 880 1029 921 1048 902 1029 l 215 1029 b 81 893 141 1029 81 968 l 81 609 l 807 609 b 847 568 830 609 847 590 b 807 526 847 544 830 526 l 81 526 l 81 43 b 40 1 81 19 62 1 b 0 43 17 1 0 19 l 0 893 b 215 1112 0 1013 96 1112 l 880 1112 "},"r":{"x_min":0,"x_max":782.640625,"ha":885,"o":"m 208 723 b 0 511 93 723 0 627 l 0 41 b 39 1 0 19 17 1 b 78 41 61 1 78 19 l 78 511 b 208 643 78 584 137 643 l 574 643 b 705 511 646 643 705 584 b 743 470 705 488 722 470 b 782 511 764 470 782 488 b 574 723 782 627 690 723 l 208 723 "},":":{"x_min":1.359375,"x_max":83.03125,"ha":188,"o":"m 1 590 b 42 631 1 613 19 631 b 83 590 63 631 83 613 l 83 486 b 42 444 83 463 63 444 b 1 486 19 444 1 463 l 1 590 m 1 187 b 42 229 1 211 19 229 b 83 187 63 229 83 211 l 83 83 b 42 41 83 61 63 41 b 1 83 19 41 1 61 l 1 187 "},"x":{"x_min":0,"x_max":826.203125,"ha":983,"o":"m 737 348 b 826 526 790 388 826 452 l 826 681 b 786 723 826 705 808 723 b 745 681 763 723 745 705 l 745 526 b 611 390 745 451 686 390 l 215 390 l 215 390 b 81 526 141 390 81 451 l 81 681 b 40 723 81 705 62 723 b 0 681 17 723 0 705 l 0 526 b 89 348 0 452 35 388 b 0 170 35 308 0 244 l 0 43 b 40 1 0 19 17 1 b 81 43 62 1 81 19 l 81 170 b 215 306 81 245 141 306 l 611 306 l 611 306 b 745 170 686 306 745 245 l 745 43 b 786 1 745 19 763 1 b 826 43 808 1 826 19 l 826 170 b 737 348 826 244 790 308 "},"*":{"x_min":-2.71875,"x_max":541.71875,"ha":646,"o":"m 507 868 b 541 833 526 868 541 852 b 507 800 541 815 526 800 l 349 800 l 461 684 b 461 637 475 672 475 651 b 415 637 449 625 427 625 l 302 751 l 302 590 b 269 557 302 571 288 557 b 236 590 251 557 236 571 l 236 751 l 123 637 b 77 637 111 625 89 625 b 77 684 63 651 63 672 l 189 800 l 31 800 b -2 833 12 800 -2 815 b 31 868 -2 852 12 868 l 189 868 l 77 982 b 77 1029 63 994 63 1016 b 123 1029 89 1043 111 1043 l 236 915 l 236 1076 b 269 1111 236 1096 251 1111 b 302 1076 288 1111 302 1096 l 302 915 l 415 1029 b 461 1029 427 1043 449 1043 b 461 982 475 1016 475 994 l 349 868 l 507 868 "},"V":{"x_min":0,"x_max":883.375,"ha":983,"o":"m 804 1087 b 447 154 509 313 447 154 b 78 1088 447 154 385 313 b 25 1111 70 1109 46 1119 b 2 1056 5 1102 -5 1079 l 409 26 b 447 0 415 9 430 0 b 484 26 464 0 479 9 l 880 1056 b 857 1111 888 1079 877 1102 b 804 1087 835 1119 812 1109 "},"h":{"x_min":0,"x_max":816.671875,"ha":954,"o":"m 78 508 b 209 642 78 582 137 642 l 607 642 b 737 508 679 642 737 582 l 737 42 b 777 1 737 19 755 1 b 816 42 798 1 816 19 l 816 508 b 607 723 816 626 722 723 l 209 723 b 78 676 160 723 115 705 l 78 1072 b 39 1112 78 1094 61 1112 b 0 1072 17 1112 0 1094 l 0 42 b 39 1 0 19 17 1 b 78 42 61 1 78 19 l 78 508 "},"0":{"x_min":0,"x_max":872.46875,"ha":1015,"o":"m 657 1112 b 872 891 775 1112 872 1013 l 872 220 b 657 0 872 98 775 0 l 216 0 b 0 220 96 0 0 98 l 0 891 b 216 1112 0 1013 96 1112 l 657 1112 m 657 1029 l 216 1029 b 147 1009 190 1029 167 1022 l 767 143 b 790 220 782 165 790 191 l 790 891 b 657 1029 790 968 730 1029 m 216 83 l 657 83 b 702 91 672 83 688 86 l 92 945 b 81 891 85 929 81 911 l 81 220 b 216 83 81 144 141 83 "},".":{"x_min":1.359375,"x_max":83.03125,"ha":217,"o":"m 1 90 b 42 131 1 113 19 131 b 83 90 63 131 83 113 l 83 41 b 42 0 83 19 63 0 b 1 41 19 0 1 19 l 1 90 "},"”":{"x_min":-57.171875,"x_max":281.75,"ha":357,"o":"m -17 1113 b -57 1072 -39 1113 -57 1094 b -17 1030 -57 1048 -39 1030 l 1 1030 l 1 952 b 42 911 1 929 19 911 b 83 952 63 911 83 929 l 83 1073 b 42 1113 83 1095 63 1113 l -17 1113 m 181 1115 b 141 1073 159 1115 141 1095 b 181 1031 141 1050 159 1031 l 200 1031 l 200 954 b 240 912 200 930 217 912 b 281 954 262 912 281 930 l 281 1075 b 240 1115 281 1097 262 1115 l 181 1115 "},"@":{"x_min":46.28125,"x_max":1200.5,"ha":1289,"o":"m 686 295 b 498 191 632 234 564 191 b 277 472 390 184 274 308 b 328 669 277 537 294 604 b 594 869 394 802 502 869 b 778 754 665 869 730 831 l 798 851 l 907 851 l 820 433 b 803 336 808 376 803 343 b 845 295 803 313 822 295 b 929 334 867 295 895 308 b 1080 640 1022 400 1080 522 b 1029 833 1080 708 1063 773 b 645 1031 959 955 812 1031 b 383 963 549 1031 462 1009 b 200 769 304 919 243 854 b 136 497 157 684 136 593 b 200 233 136 394 157 306 b 661 19 287 87 461 19 b 1091 205 873 19 1019 101 l 1200 205 b 1092 73 1180 162 1143 119 b 662 -75 993 -16 858 -75 b 96 231 392 -79 174 44 b 46 486 62 311 46 395 b 106 775 46 587 66 683 b 650 1123 205 1001 389 1123 b 1112 872 852 1123 1019 1038 b 1170 637 1151 800 1170 722 b 1046 318 1170 518 1129 411 b 803 191 971 233 891 191 b 698 241 748 191 714 212 b 686 295 692 252 688 270 m 390 463 b 521 286 390 351 454 286 b 665 366 566 286 620 311 b 743 597 710 422 743 513 b 602 776 743 709 680 776 b 461 690 549 776 504 751 b 390 463 419 630 390 536 "},"f":{"x_min":0,"x_max":495.4375,"ha":456,"o":"m 454 1029 b 495 1070 477 1029 495 1048 b 454 1112 495 1094 477 1112 l 215 1112 b 0 893 96 1112 0 1013 l 0 43 b 40 1 0 19 17 1 b 81 43 62 1 81 19 l 81 637 l 357 637 b 398 679 381 637 398 656 b 357 720 398 702 381 720 l 81 720 l 81 893 b 215 1029 81 968 141 1029 l 454 1029 "},";":{"x_min":-57.171875,"x_max":83.03125,"ha":217,"o":"m 1 469 b 42 511 1 493 19 511 b 83 469 63 511 83 493 l 83 420 b 42 379 83 398 63 379 b 1 420 19 379 1 398 l 1 469 m -17 83 b -57 41 -39 83 -57 63 b -17 0 -57 18 -39 0 l 1 0 l 1 -77 b 42 -119 1 -101 19 -119 b 83 -77 63 -119 83 -101 l 83 43 b 42 83 83 65 63 83 l -17 83 "},"“":{"x_min":2.71875,"x_max":341.640625,"ha":318,"o":"m 302 911 b 341 952 323 911 341 930 b 302 994 341 976 323 994 l 283 994 l 283 1072 b 242 1113 283 1095 265 1113 b 201 1072 220 1113 201 1095 l 201 951 b 242 911 201 929 220 911 l 302 911 m 103 909 b 142 951 125 909 142 929 b 103 993 142 975 125 993 l 84 993 l 84 1070 b 43 1112 84 1094 66 1112 b 2 1070 21 1112 2 1094 l 2 950 b 43 909 2 927 21 909 l 103 909 "},"i":{"x_min":0,"x_max":81.671875,"ha":218,"o":"m 40 723 b 0 683 17 723 0 705 l 0 43 b 40 1 0 19 17 1 b 81 43 62 1 81 19 l 81 683 b 40 723 81 705 62 723 m 0 812 b 40 770 0 790 17 770 b 81 812 62 770 81 790 l 81 861 b 40 902 81 884 62 902 b 0 861 17 902 0 884 l 0 812 "},"6":{"x_min":0,"x_max":892.890625,"ha":1051,"o":"m 892 391 l 892 219 b 677 0 892 98 796 0 l 215 0 b 0 218 96 0 0 98 l 0 894 b 213 1112 0 1013 96 1112 l 788 1112 b 828 1070 809 1112 828 1094 b 788 1030 828 1048 809 1030 l 213 1030 b 81 894 140 1030 81 969 l 81 611 l 677 611 b 892 391 796 611 892 512 m 811 219 l 811 391 b 677 527 811 466 751 527 l 81 527 l 81 218 b 215 83 81 143 141 83 l 677 83 b 811 219 751 83 811 144 "},"A":{"x_min":0,"x_max":969.109375,"ha":1114,"o":"m 754 1112 b 969 893 872 1112 969 1013 l 969 43 b 928 1 969 19 950 1 b 887 43 906 1 887 19 l 887 526 l 81 526 l 81 43 b 40 1 81 19 62 1 b 0 43 19 1 0 19 l 0 893 b 215 1112 0 1013 96 1112 l 754 1112 m 81 608 l 887 608 l 887 893 b 754 1029 887 969 827 1029 l 215 1029 b 81 893 141 1029 81 969 l 81 608 "},"‘":{"x_min":148.40625,"x_max":313.25,"ha":318,"o":"m 298 1243 b 238 1237 280 1258 253 1256 l 159 1141 b 163 1080 142 1123 145 1095 b 223 1084 181 1065 208 1066 l 303 1180 b 298 1243 318 1200 315 1226 "},"n":{"x_min":0.015625,"x_max":784.328125,"ha":911,"o":"m 41 723 b 0 681 17 721 0 703 l 0 42 b 41 1 0 19 17 1 b 82 42 62 1 82 19 b 82 640 82 317 82 640 b 569 640 82 640 2 640 b 704 503 644 640 704 578 l 704 42 b 743 1 704 19 721 1 b 784 42 766 1 784 19 l 784 503 b 569 723 784 624 689 723 l 41 723 "},"O":{"x_min":0,"x_max":1101.0625,"ha":1230,"o":"m 0 220 l 0 893 q 64 1048 0 983 q 219 1112 128 1112 l 883 1112 q 1037 1048 973 1112 q 1101 893 1101 984 l 1101 220 q 1037 65 1101 129 q 883 1 973 1 l 219 1 q 64 65 128 1 q 0 220 0 129 m 83 220 q 123 124 83 164 q 219 84 163 84 l 883 84 q 979 124 939 84 q 1019 220 1019 164 l 1019 893 q 979 989 1019 949 q 883 1029 939 1029 l 219 1029 q 123 989 163 1029 q 83 893 83 949 l 83 220 "},"3":{"x_min":0.21875,"x_max":889.015625,"ha":1033,"o":"m 812 543 b 889 363 853 502 889 437 l 889 220 b 671 0 889 98 791 0 l 216 0 b 0 220 96 0 0 100 l 0 304 b 41 345 0 327 19 345 b 81 304 64 345 81 327 l 81 220 b 216 83 81 145 143 83 l 671 83 b 805 220 746 83 805 144 l 805 363 b 729 501 805 440 747 497 b 213 501 729 501 727 501 b 173 538 193 501 175 518 b 173 543 173 540 173 541 b 213 584 173 566 192 584 b 729 584 727 584 729 584 b 805 722 747 588 805 645 l 805 893 b 671 1030 805 969 746 1030 l 216 1030 b 81 893 141 1030 81 968 l 81 809 b 41 768 81 786 64 768 b 0 809 17 768 0 786 l 0 893 b 216 1113 0 1013 96 1113 l 671 1113 b 889 893 791 1113 889 1015 l 889 722 b 812 543 889 648 853 583 "},"]":{"x_min":-112.6875,"x_max":81.9375,"ha":126,"o":"m -73 1186 b -112 1145 -95 1186 -112 1168 b -73 1105 -112 1123 -95 1105 b 3 1105 -48 1105 3 1105 b 3 -100 3 1041 3 -36 b -73 -100 3 -100 -48 -100 b -112 -140 -95 -100 -112 -118 b -73 -180 -112 -162 -95 -180 l 42 -180 b 81 -140 64 -180 81 -162 l 81 1145 b 42 1186 81 1168 64 1186 l -73 1186 "},"m":{"x_min":0,"x_max":1339.328125,"ha":1490,"o":"m 837 723 b 660 627 766 723 705 683 b 485 723 620 683 559 723 l 213 723 b 0 498 96 723 0 620 l 0 41 b 39 1 0 19 17 1 b 81 41 61 1 81 19 l 81 498 b 213 636 81 575 141 636 l 485 636 b 619 498 560 636 619 575 l 619 41 b 660 1 619 19 637 1 b 666 2 662 1 665 1 b 706 41 687 5 706 22 l 706 498 b 837 636 706 575 764 636 l 1120 636 b 1257 498 1199 636 1257 575 l 1257 41 b 1298 1 1257 19 1275 1 b 1339 41 1321 1 1339 19 l 1339 498 b 1120 723 1339 620 1242 723 l 837 723 "},"9":{"x_min":0,"x_max":892.890625,"ha":1053,"o":"m 0 720 l 0 894 b 213 1112 0 1015 95 1112 l 677 1112 b 892 894 796 1112 892 1015 l 892 219 b 677 0 892 98 796 0 l 104 0 b 63 41 81 0 63 18 b 104 83 63 63 81 83 l 677 83 b 811 219 751 83 811 144 l 811 501 l 213 501 b 0 720 95 501 0 600 m 81 894 l 81 720 b 213 584 81 645 140 584 l 811 584 l 811 894 b 677 1030 811 969 751 1030 l 213 1030 b 81 894 140 1030 81 969 "},"l":{"x_min":0,"x_max":390.640625,"ha":507,"o":"m 0 220 b 215 1 0 100 96 1 l 349 1 b 390 43 371 1 390 20 b 349 84 390 65 371 84 l 215 84 b 81 220 141 84 81 145 l 81 1070 b 40 1112 81 1094 62 1112 b 0 1070 17 1112 0 1094 l 0 220 "},"8":{"x_min":0,"x_max":933.71875,"ha":1053,"o":"m 843 555 b 933 377 898 515 933 451 l 933 219 b 718 0 933 98 837 0 l 215 0 b 0 218 96 0 0 97 l 0 377 b 88 555 0 451 35 515 b 0 731 35 594 0 659 l 0 891 b 213 1111 0 1012 95 1111 l 718 1111 b 932 891 837 1111 932 1012 l 932 733 b 843 555 932 659 898 595 m 213 597 l 720 597 b 852 733 792 597 852 658 l 852 891 b 718 1027 852 966 792 1027 l 213 1027 b 80 891 140 1027 80 966 l 80 731 b 213 597 80 658 140 597 m 720 513 l 213 513 b 81 377 140 513 81 452 l 81 218 b 215 83 81 143 141 83 l 718 83 b 852 219 792 83 852 144 l 852 377 b 720 513 852 452 792 513 "},"p":{"x_min":1.171875,"x_max":849.3125,"ha":983,"o":"m 83 -345 b 83 2 83 -143 83 2 b 634 2 83 2 44 2 b 849 222 752 2 849 101 l 849 504 b 634 723 849 624 752 723 l 216 723 b 1 504 97 723 1 624 l 1 -345 b 42 -387 1 -369 18 -387 b 83 -345 63 -387 83 -369 m 769 222 b 634 86 769 147 709 86 b 83 86 44 86 83 86 b 83 504 83 86 83 319 b 216 640 83 579 142 640 l 634 640 b 769 504 709 640 769 579 l 769 222 "},"4":{"x_min":0,"x_max":886.078125,"ha":1076,"o":"m 804 1070 b 845 1112 804 1092 823 1112 b 886 1070 868 1112 886 1092 l 886 41 b 845 0 886 17 868 0 b 804 41 823 0 804 17 b 804 498 804 210 804 498 b 671 449 767 467 721 449 l 216 449 b 0 670 96 449 0 548 l 0 1070 b 40 1112 0 1092 17 1112 b 81 1070 63 1112 81 1092 l 81 670 b 216 533 81 594 141 533 l 671 533 b 804 670 744 533 804 595 b 804 1070 804 670 804 880 "},"R":{"x_min":1,"x_max":1023.390625,"ha":1139,"o":"m 1 42 l 1 893 q 65 1048 1 983 q 220 1112 129 1112 l 804 1112 q 959 1048 895 1112 q 1023 893 1023 983 l 1023 611 q 995 503 1023 552 q 920 424 967 453 q 978 349 957 393 q 999 255 999 305 l 999 42 q 987 12 999 24 q 957 1 974 1 q 928 12 940 1 q 916 42 916 24 l 916 255 q 876 352 916 312 q 782 392 837 392 l 84 392 l 84 42 q 71 12 84 24 q 42 1 59 1 q 12 12 24 1 q 1 42 1 24 m 84 475 l 804 475 q 901 515 861 475 q 942 611 942 555 l 942 893 q 901 989 942 949 q 804 1029 861 1029 l 220 1029 q 124 989 164 1029 q 84 893 84 949 l 84 475 "},"o":{"x_min":0,"x_max":944.609375,"ha":1064,"o":"m 215 723 b 0 504 96 723 0 625 l 0 220 b 215 1 0 100 96 1 l 729 1 b 944 220 847 1 944 100 l 944 504 b 729 723 944 625 847 723 l 215 723 m 81 504 b 215 640 81 579 141 640 l 729 640 b 862 504 803 640 862 579 l 862 220 b 729 84 862 145 803 84 l 215 84 b 81 220 141 84 81 145 l 81 504 "},"5":{"x_min":0,"x_max":882,"ha":1019,"o":"m 88 654 l 666 654 b 882 434 785 654 882 555 l 882 219 b 666 0 882 98 785 0 l 215 0 b 0 219 96 0 0 98 l 0 345 b 40 387 0 369 17 387 b 81 345 62 387 81 369 l 81 219 b 215 83 81 144 141 83 l 666 83 b 800 219 740 83 800 144 l 800 434 b 666 570 800 509 740 570 l 47 570 b 6 612 24 570 6 590 l 6 888 b 220 1108 6 1009 102 1108 l 813 1108 b 854 1066 835 1108 854 1090 b 813 1025 854 1044 835 1025 l 220 1025 b 88 888 147 1025 88 963 l 88 654 "}}}
